HIERARCHY
ROOT Hips
{
	OFFSET 0.000000 0.000000 0.000000
	CHANNELS 6 Xposition Yposition Zposition Zrotation Yrotation Xrotation 
	JOINT LHipJoint
	{
		OFFSET 0.000000 0.000000 0.000000
		CHANNELS 3 Zrotation Yrotation Xrotation
		JOINT LeftUpLeg
		{
			OFFSET 1.363060 -1.794630 0.839290
			CHANNELS 3 Zrotation Yrotation Xrotation
			JOINT LeftLeg
			{
				OFFSET 2.448110 -6.726130 0.000000
				CHANNELS 3 Zrotation Yrotation Xrotation
				JOINT LeftFoot
				{
					OFFSET 2.562200 -7.039590 0.000000
					CHANNELS 3 Zrotation Yrotation Xrotation
					JOINT LeftToeBase
					{
						OFFSET 0.157640 -0.433110 2.322550
						CHANNELS 3 Zrotation Yrotation Xrotation
						End Site
						{
							OFFSET 0.000000 0.000000 0.000000
						}
					}
				}
			}
		}
	}
	JOINT RHipJoint
	{
		OFFSET 0.000000 0.000000 0.000000
		CHANNELS 3 Zrotation Yrotation Xrotation
		JOINT RightUpLeg
		{
			OFFSET -1.305520 -1.794630 0.839290
			CHANNELS 3 Zrotation Yrotation Xrotation
			JOINT RightLeg
			{
				OFFSET -2.542530 -6.985550 0.000000
				CHANNELS 3 Zrotation Yrotation Xrotation
				JOINT RightFoot
				{
					OFFSET -2.568260 -7.056230 0.000000
					CHANNELS 3 Zrotation Yrotation Xrotation
					JOINT RightToeBase
					{
						OFFSET -0.164730 -0.452590 2.363150
						CHANNELS 3 Zrotation Yrotation Xrotation
						End Site
						{
							OFFSET 0.000000 0.000000 0.000000
						}
					}
				}
			}
		}
	}
}
MOTION
Frames: 33
Frame Time: 0.008333
10.870074 15.235863 1.984794 -165.618815 -81.273474 -147.366319 -8.294271 -1.184978 3.638920 -9.957372 -6.063745 -92.730809 -3.100712 3.690961 38.174946 1.019916 3.959683 -0.187176 1.495800 0.000000 -33.242000 10.495215 0.514743 -3.430733 10.470989 -6.169587 -54.087125 1.522302 -5.291499 62.205549 -1.331125 -2.536514 -18.772486 0.721200 -0.000000 -88.172800
10.714157 15.211063 2.009783 -166.866091 -81.463029 -146.300296 -8.226548 -1.187872 3.485401 -10.274191 -6.379315 -92.917372 -2.889936 3.915952 40.357622 1.066052 4.027917 -0.816044 1.419200 0.000000 -31.470600 10.650812 0.591625 -3.503882 9.935289 -6.822743 -54.565830 1.189347 -5.506124 63.982649 -1.188966 -2.544169 -16.467438 0.515500 -0.000000 -90.128900
10.560727 15.188533 2.034410 -168.131815 -81.672584 -145.188974 -8.151520 -1.187404 3.336018 -10.629354 -6.710043 -93.015413 -2.713182 4.099155 42.360070 1.128959 4.102666 -1.771396 1.312401 -0.000000 -29.911200 10.794223 0.680912 -3.563735 9.401049 -7.398849 -55.095899 0.839405 -5.707730 65.751846 -1.081185 -2.628828 -14.027627 0.325700 0.000000 -91.412201
10.409906 15.168278 2.058691 -169.380326 -81.891723 -144.071028 -8.073468 -1.183674 3.191281 -11.007966 -7.041980 -93.028457 -2.567416 4.246720 44.184392 1.206775 4.186686 -2.979972 1.179900 0.000000 -28.582600 10.922219 0.781151 -3.608831 8.879618 -7.888889 -55.660723 0.484370 -5.892451 67.494557 -1.013300 -2.792454 -11.551028 0.152600 -0.000000 -91.848500
10.261690 15.150264 2.082975 -170.504145 -82.109130 -143.051049 -7.999489 -1.179179 3.053650 -11.382261 -7.354949 -92.974099 -2.447223 4.365294 45.838258 1.296099 4.277646 -4.354471 1.026900 -0.000000 -27.492500 11.029546 0.888181 -3.637693 8.394213 -8.276783 -56.250407 0.135745 -6.056691 69.195629 -0.987960 -3.042718 -9.145927 -0.005900 -0.000001 -91.349900
10.116102 15.134508 2.107353 -171.433021 -82.316695 -142.198377 -7.934969 -1.175892 2.924888 -11.732699 -7.634865 -92.869254 -2.347077 4.460873 47.329912 1.392246 4.371870 -5.801106 0.860401 -0.000000 -26.644300 11.113413 0.998099 -3.650393 7.961962 -8.557457 -56.861899 -0.196670 -6.200159 70.846915 -1.003651 -3.386196 -6.924979 -0.155200 0.000000 -89.939300
9.973216 15.121086 2.131862 -172.119827 -82.509679 -141.559200 -7.883889 -1.175358 2.806618 -12.044854 -7.873112 -92.731381 -2.261576 4.538725 48.668766 1.489676 4.464566 -7.231450 0.688900 0.000000 -26.032100 11.172771 1.107249 -3.647707 7.596340 -8.731788 -57.498975 -0.506163 -6.324756 72.443846 -1.055666 -3.828109 -4.989750 -0.301500 0.000000 -87.734300
9.833135 15.110148 2.156362 -172.542663 -82.686071 -141.154400 -7.848407 -1.178476 2.700055 -12.310327 -8.066593 -92.577811 -2.185956 4.603348 49.865591 1.582845 4.551237 -8.571173 0.521200 0.000000 -25.636300 11.208294 1.212788 -3.630987 7.305891 -8.806206 -58.169825 -0.789486 -6.433876 73.983706 -1.137601 -4.370661 -3.417983 -0.449200 -0.000000 -84.938800
9.695991 15.101874 2.180574 -172.717199 -82.846392 -140.968067 -7.828278 -1.184927 2.605397 -12.529739 -8.217439 -92.420928 -2.117219 4.658177 50.931380 1.666926 4.626452 -9.771457 0.364900 0.000000 -25.382700 11.222547 1.313082 -3.601668 7.092247 -8.792262 -58.884213 -1.046140 -6.531783 75.463987 -1.242212 -5.006922 -2.258352 -0.598400 0.000001 -81.768000
9.561753 15.096326 2.204397 -172.632004 -82.992137 -141.004630 -7.823839 -1.194655 2.525019 -12.696457 -8.330523 -92.277646 -2.052310 4.705244 51.871299 1.738786 4.690436 -10.791412 0.227500 0.000000 -25.329500 11.216554 1.406983 -3.560030 6.960355 -8.695256 -59.656321 -1.277335 -6.620844 76.875115 -1.363813 -5.728135 -1.514015 -0.745700 0.000000 -78.581701
9.430761 15.093774 2.227239 -172.378918 -83.127390 -141.178975 -7.830215 -1.205398 2.456127 -12.828344 -8.415339 -92.146073 -1.992295 4.745989 52.696885 1.796814 4.736324 -11.641553 0.109500 0.000000 -25.284800 11.195637 1.495459 -3.507762 6.896889 -8.535145 -60.491389 -1.485023 -6.705845 78.214940 -1.495183 -6.502261 -1.177594 -0.879500 -0.000000 -75.457300
9.302900 15.094217 2.248919 -171.984160 -83.255976 -141.458745 -7.845355 -1.215693 2.399667 -12.928312 -8.481645 -92.031773 -1.937394 4.780406 53.409319 1.841616 4.766075 -12.327747 0.012200 -0.000001 -25.279400 11.161610 1.579063 -3.444854 6.897159 -8.320036 -61.399167 -1.670837 -6.788366 79.471560 -1.630983 -7.297755 -1.201057 -0.988300 -0.000000 -72.616800
9.178377 15.097773 2.269108 -171.519046 -83.382386 -141.776011 -7.865202 -1.223481 2.354131 -13.008891 -8.539732 -91.929314 -1.889760 4.807973 54.011006 1.875029 4.779235 -12.880999 -0.067300 -0.000000 -25.256899 11.117633 1.658988 -3.372129 6.949161 -8.063947 -62.382289 -1.835971 -6.870623 80.635608 -1.765042 -8.071715 -1.529093 -1.059700 0.000000 -70.116500
9.057234 15.104434 2.287506 -171.056963 -83.510932 -142.061521 -7.885741 -1.226804 2.317224 -13.084689 -8.598275 -91.828512 -1.852208 4.827876 54.504513 1.899833 4.775661 -13.342882 -0.134000 0.000001 -25.152300 11.066861 1.736206 -3.290079 7.038148 -7.780766 -63.439004 -1.981033 -6.954341 81.696854 -1.891201 -8.780133 -2.097476 -1.085101 0.000000 -67.965100
8.939328 15.114081 2.304005 -170.645050 -83.645055 -142.268809 -7.904466 -1.224046 2.287981 -13.163977 -8.664961 -91.720065 -1.827027 4.838811 54.888588 1.919199 4.757598 -13.750090 -0.192400 -0.000000 -24.971600 11.010990 1.811265 -3.199077 7.152990 -7.481087 -64.566100 -2.105869 -7.039977 82.642444 -2.003785 -9.384420 -2.834828 -1.062600 0.000000 -66.174400
8.824705 15.126627 2.318520 -170.332367 -83.786900 -142.355141 -7.918994 -1.214171 2.264506 -13.255374 -8.744059 -91.592540 -1.816329 4.839789 55.163845 1.935905 4.726135 -14.137917 -0.247200 -0.000000 -24.703300 10.951630 1.884533 -3.099556 7.282219 -7.174663 -65.755985 -2.210127 -7.127623 83.460596 -2.097761 -9.853990 -3.672798 -0.996900 -0.000000 -64.727900
8.712980 15.141744 2.331262 -170.119278 -83.936711 -142.320797 -7.929346 -1.196694 2.246199 -13.359555 -8.836262 -91.438635 -1.820917 4.830150 55.330717 1.951896 4.682615 -14.528001 -0.301200 0.000000 -24.405100 10.888618 1.955640 -2.992327 7.420719 -6.867638 -66.998739 -2.292749 -7.216044 84.138754 -2.169525 -10.170881 -4.550058 -0.898200 -0.000000 -63.608900
8.604155 15.159306 2.342323 -170.029378 -84.093646 -142.150448 -7.934565 -1.171674 2.231289 -13.480173 -8.939888 -91.248735 -1.841416 4.809531 55.392315 1.968235 4.626233 -14.937466 -0.356900 -0.000000 -24.062300 10.822897 2.024196 -2.877559 7.560920 -6.565652 -68.282025 -2.353068 -7.304398 84.667846 -2.217252 -10.330011 -5.417416 -0.779300 -0.000000 -62.786701
8.497941 15.178983 2.351923 -170.048116 -84.255336 -141.861088 -7.935588 -1.139553 2.219279 -13.614688 -9.050821 -91.020209 -1.877048 4.778317 55.353813 1.984800 4.555685 -15.367982 -0.414400 0.000001 -23.706300 10.754115 2.089340 -2.755394 7.700645 -6.270594 -69.593868 -2.390107 -7.391004 85.040005 -2.241231 -10.339350 -6.240133 -0.652800 -0.000001 -62.234700
8.393981 15.200512 2.360507 -170.116305 -84.418101 -141.514830 -7.935226 -1.101846 2.210082 -13.754708 -9.160385 -90.755132 -1.925647 4.737717 55.222701 2.000271 4.469280 -15.807475 -0.471800 -0.000001 -23.408100 10.680368 2.149330 -2.626763 7.844838 -5.981004 -70.920098 -2.402566 -7.473532 85.249403 -2.243684 -10.217059 -7.001901 -0.528300 0.000000 -61.904500
8.291966 15.223609 2.368389 -170.186904 -84.577897 -141.160634 -7.935829 -1.059979 2.203616 -13.893424 -9.261175 -90.458543 -1.984805 4.689350 55.008836 2.012766 4.364660 -16.239678 -0.526499 0.000000 -23.190800 10.600335 2.202645 -2.491944 7.997222 -5.694266 -72.249246 -2.389425 -7.550202 85.293558 -2.228528 -9.988520 -7.701662 -0.411700 -0.000000 -61.742100
8.191917 15.248136 2.375743 -170.229175 -84.731560 -140.833470 -7.938889 -1.015556 2.199593 -14.025816 -9.347425 -90.136174 -2.051902 4.634789 54.722421 2.020468 4.241335 -16.645303 -0.575500 -0.000000 -23.048200 10.513439 2.247979 -2.350767 8.159388 -5.407971 -73.571616 -2.350123 -7.619843 85.171992 -2.200838 -9.683535 -8.344929 -0.306101 0.000000 -61.723700
8.093495 15.273924 2.382936 -170.156406 -84.874773 -140.619730 -7.948142 -0.970607 2.198328 -14.141886 -9.410284 -89.799585 -2.123652 4.576599 54.376484 2.021183 4.098749 -17.002295 -0.615700 0.000000 -23.022000 10.417125 2.283016 -2.204158 8.341448 -5.116017 -74.877088 -2.283424 -7.680705 84.885833 -2.165700 -9.328879 -8.954058 -0.210199 0.000000 -61.768100
7.996565 15.300820 2.390121 -169.920674 -85.005039 -140.566596 -7.965394 -0.926493 2.199972 -14.236362 -9.445880 -89.459097 -2.197474 4.516765 53.983190 2.013838 3.938880 -17.296147 -0.644800 0.000000 -23.089500 10.310609 2.306093 -2.052120 8.547803 -4.813747 -76.158454 -2.188747 -7.731925 84.437501 -2.127825 -8.947840 -9.547692 -0.122200 -0.000000 -61.840300
7.900997 15.328735 2.397382 -169.470666 -85.119352 -140.724966 -7.992131 -0.884395 2.204422 -14.304715 -9.450903 -89.123617 -2.271156 4.457021 53.553773 1.998258 3.765564 -17.518646 -0.662200 -0.000000 -23.228099 10.193260 2.315652 -1.894895 8.782963 -4.496405 -77.408759 -2.065529 -7.772799 83.829512 -2.090783 -8.556291 -10.143575 -0.039900 0.000001 -61.901800
7.806942 15.357695 2.404711 -168.769661 -85.215399 -141.133394 -8.028728 -0.845122 2.211349 -14.343888 -9.424577 -88.800848 -2.343092 4.398635 53.097768 1.975480 3.584654 -17.670370 -0.668600 0.000000 -23.404500 10.065070 2.310699 -1.733084 9.050100 -4.159688 -78.621219 -1.913601 -7.802862 83.065188 -2.056432 -8.160961 -10.753088 0.038600 -0.000000 -61.925499
7.714203 15.387554 2.411989 -167.807615 -85.291120 -141.799685 -8.074517 -0.808179 2.220410 -14.354665 -9.368711 -88.494288 -2.412590 4.342151 52.622390 1.947631 3.403213 -17.760464 -0.665899 -0.000000 -23.579200 9.927510 2.290810 -1.567187 9.348991 -3.802217 -79.788517 -1.732953 -7.822003 82.148298 -2.024372 -7.757506 -11.380338 0.113901 0.000000 -61.885200
7.623004 15.418249 2.419223 -166.515311 -85.343469 -142.793318 -8.129517 -0.774706 2.231703 -14.330014 -9.281634 -88.210432 -2.478575 4.288031 52.134512 1.917342 3.229047 -17.801679 -0.656800 -0.000000 -23.733200 9.780832 2.254731 -1.397006 9.683628 -3.414122 -80.902722 -1.524350 -7.828600 81.080493 -1.993487 -7.341154 -12.011008 0.183900 -0.000000 -61.823400
7.533176 15.449692 2.426046 -164.982931 -85.371386 -144.025930 -8.189661 -0.741832 2.243882 -14.280697 -9.171913 -87.941093 -2.542031 4.235098 51.635057 1.888149 3.070235 -17.815355 -0.645000 0.000000 -23.828799 9.629807 2.204605 -1.224425 10.045082 -3.005248 -81.954817 -1.288686 -7.824107 79.870064 -1.958826 -6.889095 -12.636598 0.247101 -0.000000 -61.708300
7.444796 15.481625 2.432371 -163.155842 -85.371681 -145.551559 -8.254066 -0.710222 2.257345 -14.199299 -9.038064 -87.689614 -2.602429 4.183117 51.128551 1.862980 2.933325 -17.819889 -0.633300 -0.000001 -23.867300 9.475857 2.139728 -1.049114 10.436298 -2.566066 -82.935455 -1.027780 -7.806631 78.520922 -1.916601 -6.390145 -13.227038 0.298700 0.000000 -61.620200
7.357824 15.513860 2.437975 -161.092459 -85.343299 -147.314914 -8.319181 -0.678390 2.271287 -14.090394 -8.885259 -87.449296 -2.660222 4.130889 50.616458 1.844500 2.823359 -17.834121 -0.624600 -0.000000 -23.846100 9.323259 2.061799 -0.872289 10.851500 -2.101561 -83.835717 -0.743835 -7.776670 77.043519 -1.861182 -5.826362 -13.758706 0.335100 -0.000000 -61.592600
7.272126 15.545986 2.442762 -158.796248 -85.284951 -149.311761 -8.382851 -0.646223 2.285905 -13.950907 -8.714377 -87.219429 -2.715212 4.077770 50.102181 1.834395 2.742656 -17.872374 -0.620500 0.000000 -23.782100 9.175104 1.971426 -0.693920 11.289319 -1.609267 -84.648217 -0.439597 -7.733590 75.447851 -1.788350 -5.190020 -14.203911 0.352700 -0.000000 -61.720600
7.187478 15.577722 2.446231 -156.477054 -85.201447 -151.338200 -8.439854 -0.611192 2.299782 -13.797703 -8.538822 -86.984026 -2.768295 4.021617 49.584310 1.834016 2.693739 -17.943946 -0.622700 0.000001 -23.691400 9.037656 1.872074 -0.516121 11.736200 -1.110429 -85.370207 -0.118029 -7.680792 73.755690 -1.692862 -4.467081 -14.553615 0.351000 0.000000 -61.984300
